<?xml version="1.0" standalone="no"?>
<!DOCTYPE svg PUBLIC "-//W3C//DTD SVG 20010904//EN"
 "http://www.w3.org/TR/2001/REC-SVG-20010904/DTD/svg10.dtd">
<svg version="1.0" xmlns="http://www.w3.org/2000/svg"
 width="262.000000pt" height="262.000000pt" viewBox="0 0 262.000000 262.000000"
 preserveAspectRatio="xMidYMid meet">
<metadata>
Created by potrace 1.11, written by Peter Selinger 2001-2013
</metadata>
<g transform="translate(0.000000,262.000000) scale(0.100000,-0.100000)"
fill="#000000" stroke="none">
<path d="M1176 2353 c-35 -9 -124 -72 -146 -103 -12 -17 -33 -70 -46 -117 -22
-80 -22 -87 -8 -131 21 -59 82 -140 136 -178 52 -36 111 -65 138 -67 11 -1 20
-2 20 -4 0 -1 -15 -31 -34 -65 -68 -124 -109 -259 -146 -482 -20 -121 -21
-131 -5 -142 38 -28 43 -16 76 176 17 99 15 89 35 174 9 41 32 105 49 143 l32
68 -2 -340 c-3 -372 2 -340 -72 -555 -111 -321 -183 -548 -181 -565 2 -12 12
-21 24 -23 25 -4 32 11 124 293 73 220 137 413 146 435 11 27 129 -231 179
-390 9 -30 23 -68 30 -85 7 -16 20 -55 30 -85 10 -30 21 -59 25 -65 3 -5 12
-29 20 -52 14 -47 36 -61 59 -39 12 13 13 21 1 58 -8 24 -17 48 -20 53 -7 9
-22 52 -86 240 -46 133 -79 211 -146 345 l-68 135 0 317 c0 215 3 318 10 318
6 0 19 -14 28 -31 9 -17 26 -43 38 -58 37 -46 116 -275 131 -379 3 -18 10 -54
16 -80 10 -40 16 -47 37 -47 22 0 25 4 25 38 0 20 3 37 8 37 4 0 7 18 7 41 0
22 -4 38 -9 35 -15 -10 -27 16 -49 99 -41 157 -102 299 -172 399 -23 32 -40
59 -38 60 2 1 25 8 53 15 82 20 167 95 206 182 l21 46 57 -9 c31 -5 67 -11 81
-13 135 -25 173 -25 178 -1 5 22 -7 35 -39 41 -55 11 -147 26 -199 31 -30 4
-57 8 -59 10 -3 3 -13 37 -23 76 -10 39 -26 81 -36 92 -10 12 -32 42 -48 68
-40 66 -72 77 -236 82 -73 2 -141 2 -152 -1z m-26 -318 c47 -4 92 -9 100 -10
8 -2 44 -6 80 -10 36 -4 72 -8 80 -9 8 -1 48 -6 88 -11 84 -9 93 -19 64 -67
-61 -98 -192 -153 -285 -118 -78 29 -125 58 -171 105 -64 64 -99 143 -58 131
9 -2 55 -8 102 -11z"/>
</g>
</svg>
